<svg xmlns="http://www.w3.org/2000/svg" xmlns:xlink="http://www.w3.org/1999/xlink" viewBox="0 0 3840 2160">
  <defs>
    <style>
      .cls-1 {
        clip-path: url(#clip-Guide);
      }

      .cls-2 {
        fill: #fff;
      }
    </style>
    <clipPath id="clip-Guide">
      <rect width="3840" height="2160"/>
    </clipPath>
  </defs>
  <g id="Guide" class="cls-1">
    <path id="Union_3" data-name="Union 3" class="cls-2" d="M86.207,342.438A86.352,86.352,0,0,1,0,256.231V86.207A86.352,86.352,0,0,1,86.207,0H513.8A86.349,86.349,0,0,1,600,86.207V256.231a86.349,86.349,0,0,1-86.2,86.207ZM22.338,86.207V256.231a63.947,63.947,0,0,0,63.87,63.87H513.8a63.955,63.955,0,0,0,63.87-63.87V86.207a63.955,63.955,0,0,0-63.87-63.87H86.207A63.844,63.844,0,0,0,22.338,86.207Zm97.068,187.146V236.58l106.3-134.593H122.081V65.213H279.752v34.838L171.959,236.58H484.921v36.773Zm281.835-53.749V66.4c11.908,1.64,19.206,5.363,26.208,11.169,9.677,8.038,15.484,21.438,15.484,40.2V219.605Zm-93.789,0V72.2h38.709V90.966c2.983-7.594,9.381-13.1,13.844-16.519,7.594-5.51,15.94-8.642,27.848-8.938v33.8a29.166,29.166,0,0,0-9.973-1.492c-13.252,0-22.042,5.658-26.948,16.827a57.344,57.344,0,0,0-4.771,22.769v82.189Z" transform="translate(1620 909)"/>
  </g>
</svg>
